# xmcd CD database file
#
# Track frame offsets:
#	150
#	26451
#	39776
#	58718
#	74868
#	91181
#	105666
#	118805
#	136379
#	151023
#	163535
#	177601
#	208863
#	223146
#	242726
#	251658
#	265412
#
# Disc length: 3667 seconds
#
# Revision: 6
# Processed by: cddbd v1.5.2PL0 Copyright (c) Steve Scherf et al.
# Submitted via: CDex 1.51
#
DISCID=fa0e5111
DTITLE=Oscar Peterson - Blue and Sentimental  [CD 3-3]
DYEAR=2007
DGENRE=Jazz
TTITLE0=Tenderly
TTITLE1=Tea for two
TTITLE2=Jive at five
TTITLE3=Brotherhood of man
TTITLE4=A foggy day
TTITLE5=It ain't necessarly so
TTITLE6=Time on my hands
TTITLE7=Roundalay
TTITLE8=Strike up the band
TTITLE9=Runnin' wild
TTITLE10=Love walked in
TTITLE11=Blues for Smedley
TTITLE12=Cotton tail
TTITLE13=They didn't believe me
TTITLE14=Mumbles
TTITLE15=Stairway to the stars
TTITLE16=Rose Room
EXTD=YEAR: 2007
EXTT0=
EXTT1=
EXTT2=
EXTT3=
EXTT4=
EXTT5=
EXTT6=
EXTT7=
EXTT8=
EXTT9=
EXTT10=
EXTT11=
EXTT12=
EXTT13=
EXTT14=
EXTT15=
EXTT16=
PLAYORDER=
